<svg width="87" height="27" viewBox="0 0 87 27" fill="none" xmlns="http://www.w3.org/2000/svg">
<path fill-rule="evenodd" clip-rule="evenodd" d="M87 27H66.9678C74.2868 27 79 21.4851 79 13.4639C78.9999 5.29974 74.4301 0.071469 67.04 0.0712891C59.7567 0.0712891 55.0439 5.5862 55.0439 13.6074C55.0439 21.7717 59.6133 26.9998 66.9678 27H0V0H17.6748L10.7842 19.1221C9.249 23.4191 8.24957 25.6751 7 26.1406V26.5703H13.1406V26.1406C10.8202 25.675 10.4986 23.5264 11.998 19.3369L12.2842 18.5488H19.7812L21.3164 22.9531C21.9947 24.9584 21.3524 25.9974 19.2461 26.1406V26.5703H29.8135V26.1406C28.3143 25.9972 27.6007 24.8866 26.5654 21.9863L18.5674 0H87V27ZM29.8613 0.500977V0.930664C32.289 0.930664 32.4316 2.72137 32.4316 5.37109V21.8076C32.4316 24.4575 32.2891 26.1406 29.8613 26.1406V26.5703H40.2861V26.1406C37.8587 26.1405 37.7158 24.4574 37.7158 21.8076V13.751H46.249V21.8076C46.249 24.4575 46.1055 26.1406 43.6777 26.1406V26.5703H54.1035V26.1406C51.6757 26.1406 51.5332 24.4575 51.5332 21.8076V5.37109C51.5332 2.72137 51.6758 0.930664 54.1035 0.930664V0.500977H43.6777V0.930664C46.1054 0.930664 46.249 2.72137 46.249 5.37109V12.4619H37.7158V5.37109C37.7158 2.72149 37.8588 0.930831 40.2861 0.930664V0.500977H29.8613Z" fill="#111113"/>
<path d="M67.0039 1.07422C71.2882 1.07422 73.2881 6.30271 73.2881 13.5361C73.288 20.984 71.3597 25.9968 67.04 25.9971C62.7201 25.9971 60.7559 20.7694 60.7559 13.5361C60.7559 6.08788 62.6482 1.07425 67.0039 1.07422Z" fill="#111113"/>
<path d="M19.3174 17.2246H12.748L16.0684 7.98535L19.3174 17.2246Z" fill="#111113"/>
</svg>
